<svg width="705" height="191" viewBox="0 0 705 191" fill="none" xmlns="http://www.w3.org/2000/svg">
<path d="M130 126.142C172.143 120.236 183.39 104.968 189.142 67C194.603 105.16 207.488 120.941 247.59 126.837C207.496 130.751 195.882 141.549 189.831 183.558C184.292 141.569 172.11 128.74 130 126.142Z" fill="#FF6D3B"/>
<path d="M127.344 185H102.734V121.816H39.1602V185H14.4531V42.8125H39.1602V101.992H102.734V42.8125H127.344V185ZM283.691 53.6523V79.3359H302.344V96.9141H283.691V155.898C283.691 159.935 284.473 162.865 286.035 164.688C287.663 166.445 290.527 167.324 294.629 167.324C297.363 167.324 300.13 166.999 302.93 166.348V184.707C297.526 186.204 292.318 186.953 287.305 186.953C269.076 186.953 259.961 176.895 259.961 156.777V96.9141H242.578V79.3359H259.961V53.6523H283.691ZM363.965 168.008C369.889 168.008 374.805 166.283 378.711 162.832C382.617 159.382 384.701 155.117 384.961 150.039H407.324C407.064 156.615 405.013 162.767 401.172 168.496C397.331 174.16 392.122 178.652 385.547 181.973C378.971 185.293 371.875 186.953 364.258 186.953C349.479 186.953 337.76 182.168 329.102 172.598C320.443 163.027 316.113 149.811 316.113 132.949V130.508C316.113 114.427 320.41 101.569 329.004 91.9336C337.598 82.2331 349.316 77.3828 364.16 77.3828C376.725 77.3828 386.947 81.0612 394.824 88.418C402.767 95.7096 406.934 105.312 407.324 117.227H384.961C384.701 111.172 382.617 106.191 378.711 102.285C374.87 98.3789 369.954 96.4258 363.965 96.4258C356.283 96.4258 350.358 99.2253 346.191 104.824C342.025 110.358 339.909 118.789 339.844 130.117V133.926C339.844 145.384 341.895 153.945 345.996 159.609C350.163 165.208 356.152 168.008 363.965 168.008ZM488.379 185C487.337 182.982 486.426 179.694 485.645 175.137C478.092 183.014 468.848 186.953 457.91 186.953C447.298 186.953 438.639 183.926 431.934 177.871C425.228 171.816 421.875 164.329 421.875 155.41C421.875 144.147 426.042 135.521 434.375 129.531C442.773 123.477 454.753 120.449 470.312 120.449H484.863V113.516C484.863 108.047 483.333 103.685 480.273 100.43C477.214 97.1094 472.559 95.4492 466.309 95.4492C460.905 95.4492 456.478 96.8164 453.027 99.5508C449.577 102.22 447.852 105.638 447.852 109.805H424.121C424.121 104.01 426.042 98.6068 429.883 93.5938C433.724 88.5156 438.932 84.5443 445.508 81.6797C452.148 78.8151 459.538 77.3828 467.676 77.3828C480.046 77.3828 489.909 80.5078 497.266 86.7578C504.622 92.9427 508.398 101.667 508.594 112.93V160.586C508.594 170.091 509.928 177.676 512.598 183.34V185H488.379ZM462.305 167.91C466.992 167.91 471.387 166.771 475.488 164.492C479.655 162.214 482.78 159.154 484.863 155.312V135.391H472.07C463.281 135.391 456.673 136.921 452.246 139.98C447.819 143.04 445.605 147.37 445.605 152.969C445.605 157.526 447.103 161.172 450.098 163.906C453.158 166.576 457.227 167.91 462.305 167.91ZM592.676 156.289C592.676 152.057 590.918 148.835 587.402 146.621C583.952 144.408 578.19 142.454 570.117 140.762C562.044 139.069 555.306 136.921 549.902 134.316C538.053 128.587 532.129 120.286 532.129 109.414C532.129 100.299 535.97 92.6823 543.652 86.5625C551.335 80.4427 561.1 77.3828 572.949 77.3828C585.579 77.3828 595.768 80.5078 603.516 86.7578C611.328 93.0078 615.234 101.113 615.234 111.074H591.504C591.504 106.517 589.811 102.741 586.426 99.7461C583.04 96.6862 578.548 95.1562 572.949 95.1562C567.741 95.1562 563.477 96.3607 560.156 98.7695C556.901 101.178 555.273 104.401 555.273 108.438C555.273 112.083 556.803 114.915 559.863 116.934C562.923 118.952 569.108 121.003 578.418 123.086C587.728 125.104 595.02 127.546 600.293 130.41C605.632 133.21 609.57 136.595 612.109 140.566C614.714 144.538 616.016 149.355 616.016 155.02C616.016 164.525 612.077 172.24 604.199 178.164C596.322 184.023 586.003 186.953 573.242 186.953C564.583 186.953 556.868 185.391 550.098 182.266C543.327 179.141 538.053 174.844 534.277 169.375C530.501 163.906 528.613 158.014 528.613 151.699H551.66C551.986 157.298 554.102 161.628 558.008 164.688C561.914 167.682 567.09 169.18 573.535 169.18C579.785 169.18 584.538 168.008 587.793 165.664C591.048 163.255 592.676 160.13 592.676 156.289ZM666.504 53.6523V79.3359H685.156V96.9141H666.504V155.898C666.504 159.935 667.285 162.865 668.848 164.688C670.475 166.445 673.34 167.324 677.441 167.324C680.176 167.324 682.943 166.999 685.742 166.348V184.707C680.339 186.204 675.13 186.953 670.117 186.953C651.888 186.953 642.773 176.895 642.773 156.777V96.9141H625.391V79.3359H642.773V53.6523H666.504Z" fill="white"/>
</svg>
